<?xml version="1.0" encoding="utf-8"?>
<!-- Generator: Adobe Illustrator 15.1.0, SVG Export Plug-In . SVG Version: 6.00 Build 0)  -->
<!DOCTYPE svg PUBLIC "-//W3C//DTD SVG 1.1//EN" "http://www.w3.org/Graphics/SVG/1.1/DTD/svg11.dtd">
<svg version="1.1" id="Layer_1" xmlns="http://www.w3.org/2000/svg" xmlns:xlink="http://www.w3.org/1999/xlink" x="0px" y="0px"
	 width="2880px" height="2880px" viewBox="0 0 2880 2880" enable-background="new 0 0 2880 2880" xml:space="preserve">
<g>
	<path fill="#FFFFFF" d="M1399.077,213.654c125.243,0,240.852,101.158,240.852,272.965c0,109.324-11.053,231.652-47.224,374.43
		l211.396-64.584c7.054-37.829,12.789-75.494,17.157-112.725c7.646-65.16,11.359-129.641,11.359-197.122
		c0-64.957-10.97-126.738-32.605-183.628c-21.632-56.879-53.271-107.416-94.038-150.202c-40.18-42.17-87.503-75.08-140.654-97.813
		c-52.772-22.567-108.705-34.012-166.243-34.012l0,0c-52.63,0-104.806,9.829-155.079,29.211
		c-50.977,19.655-97.345,48.143-137.816,84.672c-43.34,39.117-78.002,85.768-103.026,138.656
		c-26.33,55.648-41.089,116.449-43.864,180.714c-6.607,153-28.128,276.982-63.961,368.504
		c-48.861,124.8-108.591,147.468-128.219,154.916c-35.846,13.604-71.271,24.628-105.529,35.287
		c-61.441,19.118-124.975,38.888-185.628,72.287c-78.442,43.194-138.562,101.649-183.795,178.699
		c-22.888,38.987-41.607,81.985-57.226,131.452c-14.644,46.38-26.216,97.367-35.378,155.877
		c-17.324,110.641-25.746,249.09-25.746,423.261c0,90.078,6.316,174.181,18.774,249.973c12.33,75.009,31.079,144.366,55.728,206.15
		c48.115,120.603,120.052,216.944,213.813,286.353c41.024,30.369,86.585,55.715,135.416,75.332
		c40.995,16.469,85.423,29.325,132.053,38.211c77.828,14.832,149.363,16.876,215.074,16.876h995.702l-210.021-192.69
		c-139.85,0-703.309,0-785.682,0C734.5,2654.703,366.5,2634.5,366.5,1974.5c0-776,172-704,468.982-816.709
		c229.612-87.141,303.018-387.291,316.319-695.257C1158.738,301.988,1285.073,213.654,1399.077,213.654"/>
</g>
<path fill="#FFFFFF" d="M2220.061,928.1c82.844,0,150,67.156,150,150c0,82.842-67.156,150-150,150h-389.979
	c-82.843,0-150-67.158-150-150c0-82.844,67.157-150,150-150H2220.061 M2220.061,748.1h-389.979
	c-44.471,0-87.706,8.75-128.506,26.006c-39.318,16.631-74.591,40.399-104.84,70.648c-30.248,30.249-54.019,65.521-70.647,104.839
	c-17.257,40.8-26.007,84.035-26.007,128.507c0,44.471,8.75,87.705,26.007,128.506c16.63,39.317,40.399,74.59,70.647,104.838
	c30.249,30.25,65.521,54.019,104.84,70.648c40.8,17.257,84.035,26.007,128.506,26.007h389.979c44.472,0,87.707-8.75,128.507-26.007
	c39.317-16.63,74.591-40.398,104.84-70.648c30.248-30.248,54.019-65.521,70.647-104.838c17.257-40.801,26.007-84.035,26.007-128.506
	c0-44.472-8.75-87.707-26.007-128.507c-16.631-39.317-40.399-74.59-70.647-104.839c-30.249-30.249-65.521-54.018-104.84-70.648
	C2307.768,756.85,2264.531,748.1,2220.061,748.1L2220.061,748.1z"/>
<path fill="#FFFFFF" d="M2143.061,2368.1c82.844,0,150,67.156,150,150c0,82.843-67.156,150-150,150h-257.979
	c-82.843,0-150-67.157-150-150c0-82.844,67.157-150,150-150H2143.061 M2143.061,2188.1h-257.979
	c-44.471,0-87.706,8.75-128.506,26.007c-39.318,16.63-74.591,40.398-104.84,70.646c-30.248,30.249-54.019,65.522-70.647,104.841
	c-17.257,40.8-26.007,84.034-26.007,128.506c0,44.471,8.75,87.706,26.007,128.506c16.63,39.316,40.399,74.591,70.647,104.84
	c30.249,30.248,65.521,54.019,104.84,70.647c40.8,17.257,84.035,26.007,128.506,26.007h257.979c44.472,0,87.707-8.75,128.507-26.007
	c39.317-16.63,74.591-40.399,104.84-70.647c30.248-30.249,54.019-65.521,70.647-104.84c17.257-40.8,26.007-84.035,26.007-128.506
	c0-44.472-8.75-87.706-26.007-128.506c-16.631-39.317-40.399-74.592-70.647-104.841c-30.249-30.248-65.521-54.018-104.84-70.646
	C2230.768,2196.85,2187.531,2188.1,2143.061,2188.1L2143.061,2188.1z"/>
<path fill="#FFFFFF" d="M2392.061,1408.1c82.844,0,150,67.156,150,150c0,82.842-67.156,150-150,150h-677.979
	c-82.843,0-150-67.158-150-150c0-82.844,67.157-150,150-150H2392.061 M2392.061,1228.1h-677.979
	c-44.471,0-87.706,8.75-128.506,26.006c-39.317,16.631-74.591,40.399-104.839,70.648c-30.249,30.248-54.02,65.521-70.648,104.839
	c-17.257,40.8-26.007,84.035-26.007,128.506c0,44.472,8.75,87.706,26.007,128.507c16.63,39.317,40.399,74.59,70.648,104.838
	c30.248,30.25,65.521,54.02,104.839,70.648c40.8,17.257,84.035,26.007,128.506,26.007h677.979c44.472,0,87.707-8.75,128.507-26.007
	c39.317-16.63,74.591-40.398,104.839-70.648c30.249-30.248,54.02-65.521,70.648-104.838c17.257-40.801,26.007-84.035,26.007-128.507
	c0-44.471-8.75-87.706-26.007-128.506c-16.631-39.317-40.399-74.591-70.648-104.839c-30.248-30.249-65.521-54.02-104.839-70.648
	C2479.768,1236.85,2436.531,1228.1,2392.061,1228.1L2392.061,1228.1z"/>
<path fill="#FFFFFF" d="M2392.061,1892.1c82.844,0,150,67.156,150,150c0,82.842-67.156,150-150,150h-677.979
	c-82.843,0-150-67.157-150-150c0-82.844,67.157-150,150-150H2392.061 M2392.061,1712.1h-677.979
	c-44.471,0-87.706,8.75-128.506,26.006c-39.317,16.631-74.591,40.399-104.839,70.648c-30.249,30.248-54.02,65.521-70.648,104.839
	c-17.257,40.8-26.007,84.035-26.007,128.506c0,44.472,8.75,87.706,26.007,128.507c16.63,39.317,40.399,74.591,70.648,104.839
	c30.248,30.249,65.521,54.019,104.839,70.647c40.8,17.258,84.035,26.008,128.506,26.008h677.979
	c44.472,0,87.707-8.75,128.507-26.008c39.317-16.63,74.591-40.398,104.839-70.647c30.249-30.248,54.02-65.521,70.648-104.839
	c17.257-40.801,26.007-84.035,26.007-128.506c0-44.472-8.75-87.707-26.007-128.507c-16.631-39.317-40.399-74.591-70.648-104.839
	c-30.248-30.249-65.521-54.02-104.839-70.648C2479.768,1720.85,2436.531,1712.1,2392.061,1712.1L2392.061,1712.1z"/>
</svg>
