<?xml version="1.0" encoding="utf-8"?>
<!-- Generator: Adobe Illustrator 15.1.0, SVG Export Plug-In . SVG Version: 6.00 Build 0)  -->
<!DOCTYPE svg PUBLIC "-//W3C//DTD SVG 1.1//EN" "http://www.w3.org/Graphics/SVG/1.1/DTD/svg11.dtd">
<svg version="1.1" id="Line_2" xmlns="http://www.w3.org/2000/svg" xmlns:xlink="http://www.w3.org/1999/xlink" x="0px" y="0px"
	 width="2880px" height="2880px" viewBox="0 0 2880 2880" enable-background="new 0 0 2880 2880" xml:space="preserve">
<g>
	<path fill="#FFFFFF" d="M2520,181c23.932,0,47.148,4.709,69.006,13.995c21.362,9.076,40.628,22.111,57.257,38.739
		c16.632,16.632,29.666,35.896,38.741,57.261C2694.291,312.854,2699,336.07,2699,360v1536c0,23.93-4.709,47.146-13.997,69.01
		c-9.074,21.359-22.108,40.623-38.735,57.25c-16.635,16.635-35.899,29.67-57.259,38.744c-21.862,9.287-45.08,13.996-69.009,13.996
		H972.5h-0.676H850.078l-45.318,112.997l-0.257,0.641l-90.094,224.69l-105.003-231.944l-0.266-0.588L561.269,2075H445.146H444.5H360
		c-23.929,0-47.146-4.709-69.008-13.996c-21.36-9.075-40.625-22.11-57.256-38.74c-16.631-16.631-29.664-35.894-38.74-57.26
		C185.709,1943.146,181,1919.93,181,1896V360c0-23.93,4.709-47.146,13.996-69.006c9.077-21.364,22.111-40.629,38.737-57.255
		c16.634-16.633,35.899-29.668,57.264-38.745C312.853,185.709,336.068,181,360,181H2520 M2520,1H360
		c-48.25,0-95.146,9.529-139.39,28.327c-42.711,18.146-81.117,44.096-114.153,77.13c-33.034,33.034-58.983,71.441-77.129,114.152
		C10.53,264.854,1,311.751,1,360v1536c0,48.25,9.53,95.146,28.328,139.391c18.145,42.712,44.094,81.117,77.129,114.152
		c33.036,33.034,71.442,58.984,114.153,77.13C264.854,2245.469,311.75,2255,360,2255h84.5h0.646l0.266,0.588l279.032,616.364
		l247.127-616.324l0.252-0.628h0.676H2520c48.249,0,95.146-9.531,139.391-28.327c42.712-18.146,81.117-44.096,114.152-77.13
		c33.034-33.035,58.984-71.441,77.13-114.152C2869.47,1991.146,2879,1944.25,2879,1896V360c0-48.249-9.53-95.146-28.327-139.391
		c-18.146-42.711-44.096-81.117-77.13-114.152c-33.035-33.034-71.441-58.984-114.152-77.13C2615.146,10.529,2568.249,1,2520,1
		L2520,1z"/>
</g>
</svg>
