<?xml version="1.0" encoding="utf-8"?>
<!-- Generator: Adobe Illustrator 15.1.0, SVG Export Plug-In . SVG Version: 6.00 Build 0)  -->
<!DOCTYPE svg PUBLIC "-//W3C//DTD SVG 1.1//EN" "http://www.w3.org/Graphics/SVG/1.1/DTD/svg11.dtd">
<svg version="1.1" id="Linework" xmlns="http://www.w3.org/2000/svg" xmlns:xlink="http://www.w3.org/1999/xlink" x="0px" y="0px"
	 width="255px" height="254px" viewBox="0 0 255 254" enable-background="new 0 0 255 254" xml:space="preserve">
<path fill="#808080" d="M182.54,91.378c7.404,10.572,11.763,23.433,11.763,37.319c0,35.979-29.167,65.146-65.146,65.146
	S64.01,164.677,64.01,128.697c0-13.886,4.358-26.748,11.763-37.319H0.01l0,117.638c0,24.853,20.147,45,45,45h164.999
	c24.853,0,45-20.147,45-45l0.001-117.638H182.54z"/>
<path fill="#808080" d="M210.01,0.016H67.655v63.029H57.322V0.016h-7v63.029H39.989V0.301c-2.514,0.279-4.961,0.777-7.333,1.453
	v61.291H22.323V6.158C8.978,13.963,0.011,28.439,0.011,45.016v37.696h83.003c-0.055,0.055-0.106,0.113-0.161,0.169
	c11.808-11.933,28.189-19.33,46.303-19.33c18.029,0,34.347,7.326,46.142,19.161h79.712V45.016
	C255.01,20.163,234.862,0.016,210.01,0.016z M232.344,56.898c0,4.224-3.425,7.647-7.647,7.647h-28.04
	c-4.223,0-7.647-3.424-7.647-7.647l0.002-27.87c0-4.224,3.423-7.647,7.646-7.647h28.04c4.225,0,7.647,3.424,7.647,7.647V56.898z"/>
<path fill="#808080" d="M129.156,78.552c-27.694,0-50.146,22.451-50.146,50.146s22.451,50.146,50.146,50.146
	s50.146-22.451,50.146-50.146S156.851,78.552,129.156,78.552z M129.156,165.843c-20.515,0-37.146-16.631-37.146-37.146
	s16.631-37.146,37.146-37.146s37.146,16.631,37.146,37.146S149.671,165.843,129.156,165.843z"/>
</svg>
